<svg width="81" height="81" viewBox="0 0 81 81" fill="none" xmlns="http://www.w3.org/2000/svg">
<path d="M35.1684 31.4489C38.293 28.0598 40.0145 23.5138 40.0145 18.6469C40.0145 9.38055 33.3958 0 20.7434 0C14.8552 0 9.88785 2.02242 6.37753 5.84851C3.26811 9.23808 1.55615 13.7831 1.55615 18.6469C1.55615 27.9143 8.14684 37.2943 20.7434 37.2943C26.6536 37.2946 31.6427 35.2737 35.1684 31.4489ZM20.7434 8.6702C27.6759 8.6702 30.833 13.8452 30.833 18.6535C30.833 21.269 29.9529 23.6903 28.3534 25.4705C26.5689 27.4588 23.9756 28.5102 20.8558 28.5102C13.748 28.5102 10.51 23.3357 10.51 18.5279C10.51 13.6219 13.6748 8.6702 20.7434 8.6702Z" fill="#21B265"/>
<path d="M66.759 7.19342C65.6124 7.21414 64.0469 7.92904 63.28 8.78161L6.36216 72.0643C5.59548 72.9174 6.1386 74.1133 7.28521 74.1133H14.7348C15.8814 74.1133 17.4453 73.414 18.2107 72.5602L74.7767 9.29037C75.5419 8.43578 75.4911 7.04539 73.5965 7.0459L66.759 7.19342Z" fill="#21B265"/>
<path d="M60.5378 44.415C54.7633 44.415 49.8901 46.4001 46.4463 50.1532C43.3962 53.477 41.7158 57.9364 41.7158 62.7078C41.7158 71.7978 48.1812 81 60.5381 81C66.3373 81 71.2302 79.017 74.6895 75.2655C77.7549 71.9406 79.4431 67.4809 79.4431 62.7078C79.4429 53.6177 72.9495 44.415 60.5378 44.415ZM60.6495 72.6057C53.7342 72.6057 50.5833 67.4127 50.5833 62.5901C50.5833 59.9636 51.4629 57.5333 53.0612 55.7463C54.8429 53.7521 57.4281 52.6982 60.5381 52.6982C67.4539 52.6982 70.6032 57.8902 70.6032 62.7144C70.6032 65.3403 69.7233 67.7712 68.1263 69.5582C66.3441 71.5518 63.7586 72.6057 60.6495 72.6057Z" fill="#21B265"/>
</svg>
