<svg width="170" height="94" viewBox="0 0 170 94" fill="none" xmlns="http://www.w3.org/2000/svg">
<path d="M38.7887 25.269H53.3172C54.3539 25.269 55.1948 24.4291 55.1948 23.3921C55.1948 22.3551 54.3539 21.5151 53.3172 21.5151H38.7887C37.752 21.5151 36.9111 22.3551 36.9111 23.3921C36.9111 24.4291 37.7518 25.269 38.7887 25.269Z" fill="#21B265" stroke="#21B265"/>
<path d="M52.8194 30.8979H47.0802C46.0435 30.8979 45.2026 31.7379 45.2026 32.7749C45.2026 33.8119 46.0435 34.6519 47.0802 34.6519H52.8194C53.8561 34.6519 54.697 33.8119 54.697 32.7749C54.697 31.7379 53.8561 30.8979 52.8194 30.8979Z" fill="#21B265" stroke="#21B265"/>
<path d="M33.0265 41.4468H47.08C48.1167 41.4468 48.9576 40.6069 48.9576 39.5698C48.9576 38.5328 48.1167 37.6929 47.08 37.6929H33.0265C31.9898 37.6929 31.1489 38.5328 31.1489 39.5698C31.1489 40.6069 31.9898 41.4468 33.0265 41.4468Z" fill="#21B265" stroke="#21B265"/>
<path d="M55.1948 65.3574C55.1948 64.3204 54.3539 63.4805 53.3172 63.4805H38.7887C37.752 63.4805 36.9111 64.3204 36.9111 65.3574C36.9111 66.3945 37.752 67.2344 38.7887 67.2344H53.3172C54.3539 67.2344 55.1948 66.3945 55.1948 65.3574Z" fill="#21B265" stroke="#21B265"/>
<path d="M52.8194 54.0981H47.0802C46.0435 54.0981 45.2026 54.9381 45.2026 55.9751C45.2026 57.0121 46.0435 57.8521 47.0802 57.8521H52.8194C53.8561 57.8521 54.697 57.0121 54.697 55.9751C54.697 54.9381 53.8561 54.0981 52.8194 54.0981Z" fill="#21B265" stroke="#21B265"/>
<path d="M48.9576 49.1807C48.9576 48.1436 48.1167 47.3037 47.08 47.3037H33.0265C31.9898 47.3037 31.1489 48.1436 31.1489 49.1807C31.1489 50.2177 31.9898 51.0576 33.0265 51.0576H47.08C48.1167 51.0576 48.9576 50.2177 48.9576 49.1807Z" fill="#21B265" stroke="#21B265"/>
<path d="M90.339 28.3205C91.3759 28.3205 92.2166 27.4806 92.2166 26.4436V24.3418C92.2166 23.3048 91.3759 22.4648 90.339 22.4648C89.3021 22.4648 88.4614 23.3048 88.4614 24.3418V26.4436C88.4614 27.4806 89.3021 28.3205 90.339 28.3205Z" fill="#21B265" stroke="#21B265"/>
<path d="M105.839 28.8822L105.838 28.8819C105.105 28.1494 103.917 28.1493 103.183 28.882L103.183 28.8821L101.697 30.3682L101.696 30.3683C100.963 31.1015 100.963 32.2898 101.697 33.0229L101.697 33.023C102.43 33.7558 103.618 33.7556 104.352 33.023L104.352 33.0229L105.839 31.5367L105.839 31.5366C106.572 30.8036 106.572 29.6153 105.839 28.8822Z" fill="#21B265" stroke="#21B265"/>
<path d="M108.279 42.498C107.242 42.498 106.401 43.338 106.401 44.375C106.401 45.412 107.242 46.252 108.279 46.252H110.381C111.418 46.252 112.259 45.412 112.259 44.375C112.259 43.338 111.418 42.498 110.381 42.498H108.279Z" fill="#21B265" stroke="#21B265"/>
<path d="M104.352 55.7273L104.352 55.7272C103.618 54.9946 102.43 54.9945 101.697 55.7272L101.696 55.7273C100.963 56.4605 100.963 57.6489 101.697 58.3819L103.183 59.8681L103.183 59.8682C103.917 60.601 105.105 60.6008 105.839 59.8682L105.839 59.868C106.572 59.1349 106.572 57.9465 105.839 57.2135L104.352 55.7273Z" fill="#21B265" stroke="#21B265"/>
<path d="M88.4614 62.3066V64.4082C88.4614 65.4452 89.3021 66.2852 90.339 66.2852C91.3759 66.2852 92.2166 65.4452 92.2166 64.4082V62.3066C92.2166 61.2697 91.3759 60.4297 90.339 60.4297C89.3021 60.4297 88.4614 61.2699 88.4614 62.3066Z" fill="#21B265" stroke="#21B265"/>
<path d="M76.326 55.7272L76.3259 55.7273L74.8391 57.2135L74.839 57.2135C74.1058 57.9467 74.1057 59.135 74.8391 59.8681L74.8391 59.8682C75.5726 60.601 76.7611 60.6008 77.4941 59.8681L78.981 58.3819L78.981 58.3819C79.7143 57.6487 79.7144 56.4603 78.981 55.7273C78.2479 54.9945 77.0592 54.9946 76.326 55.7272Z" fill="#21B265" stroke="#21B265"/>
<path d="M70.2965 42.498C69.2598 42.498 68.4189 43.338 68.4189 44.375C68.4189 45.412 69.2598 46.252 70.2965 46.252H72.3993C73.4359 46.252 74.2768 45.412 74.2768 44.375C74.2768 43.338 73.4359 42.498 72.3993 42.498H70.2965Z" fill="#21B265" stroke="#21B265"/>
<path d="M78.9815 30.3683L78.9815 30.3682L77.4946 28.8821L77.4945 28.882C76.7614 28.1494 75.5727 28.1493 74.8396 28.8821L74.8395 28.8821C74.1063 29.6153 74.1062 30.8036 74.8396 31.5367L76.3264 33.0229L76.3265 33.023C77.0599 33.7558 78.2484 33.7556 78.9815 33.0229C79.7149 32.2898 79.7148 31.1015 78.9815 30.3683Z" fill="#21B265" stroke="#21B265"/>
<path d="M98.2467 44.3746C98.2467 43.3376 97.406 42.4977 96.3691 42.4977H92.2166V32.7744C92.2166 31.7374 91.3759 30.8975 90.339 30.8975C89.3021 30.8975 88.4614 31.7374 88.4614 32.7744V44.3746C88.4614 45.4116 89.3021 46.2516 90.339 46.2516H96.3691C97.4058 46.2516 98.2467 45.4116 98.2467 44.3746Z" fill="#21B265" stroke="#21B265"/>
<path d="M114.502 42.8873C114.565 43.923 115.455 44.7068 116.489 44.6469L116.46 44.1477L116.49 44.6468C117.525 44.584 118.313 43.6946 118.251 42.6597M114.502 42.8873L115.001 42.8571L114.502 42.8873C114.502 42.8873 114.502 42.8873 114.502 42.8873ZM114.502 42.8873C113.73 30.153 103.116 20.176 90.3386 20.176C76.9892 20.176 66.1282 31.0326 66.1282 44.3754C66.1282 57.7182 76.9892 68.5746 90.3386 68.5746C102.311 68.5746 112.507 59.8011 114.279 48.0002C114.433 46.974 115.391 46.2692 116.414 46.4226L116.414 46.4226C117.44 46.5764 118.146 47.532 117.992 48.5574C115.942 62.2118 104.153 72.3284 90.3386 72.3284C74.9182 72.3284 62.373 59.7892 62.373 44.3752C62.373 28.961 74.9182 16.4219 90.3386 16.4219C105.098 16.4219 117.358 27.9459 118.251 42.6597M118.251 42.6597L117.751 42.69L118.251 42.6597C118.251 42.6597 118.251 42.6597 118.251 42.6597Z" fill="#21B265" stroke="#21B265"/>
<path d="M63.8897 22.9777L63.8897 22.9778C64.6585 23.6736 65.8453 23.6147 66.5416 22.8467L66.5417 22.8466C72.6189 16.1394 81.2933 12.2925 90.339 12.2925C108.037 12.2925 122.436 26.6853 122.436 44.375C122.436 62.0646 108.037 76.4576 90.339 76.4576C72.6407 76.4576 58.2417 62.0648 58.2417 44.375C58.2417 38.1795 60.0121 32.1675 63.3609 26.9873C63.9238 26.1166 63.6738 24.9547 62.8029 24.3922L62.8028 24.3921C61.9321 23.8301 60.7701 24.0791 60.207 24.95L60.207 24.95C56.4644 30.7388 54.4865 37.4562 54.4865 44.375C54.4865 56.4079 60.4507 67.0722 69.5757 73.5737H52.0706C51.034 73.5737 50.1931 74.4137 50.1931 75.4507C50.1931 76.4877 51.034 77.3276 52.0706 77.3276H76.2543C80.5808 79.1824 85.3423 80.2115 90.3392 80.2115C110.108 80.2115 126.192 64.136 126.192 44.375C126.192 24.6141 110.108 8.53857 90.339 8.53857C85.4593 8.53857 80.6784 9.54322 76.2737 11.4225H52.0704C51.0338 11.4225 50.1929 12.2624 50.1929 13.2994C50.1929 14.3364 51.0338 15.1764 52.0704 15.1764H69.5616C67.4621 16.6669 65.5133 18.3898 63.7585 20.3265C63.0624 21.0947 63.1211 22.2818 63.8897 22.9777Z" fill="#21B265" stroke="#21B265"/>
</svg>
