<svg width="81" height="83" viewBox="0 0 81 83" fill="none" xmlns="http://www.w3.org/2000/svg">
<g clip-path="url(#clip0)">
<path d="M20.2498 0C18.6521 0 17.3569 1.31573 17.3569 2.93883V8.81632H23.1426V2.93883C23.1426 1.31573 21.8474 0 20.2498 0Z" fill="#21B265"/>
<path d="M60.7498 0C59.1521 0 57.8569 1.31573 57.8569 2.93883V8.81632H63.6426V2.93883C63.6428 1.31573 62.3476 0 60.7498 0Z" fill="#21B265"/>
<path d="M72.3214 8.81641H63.6429V20.5716C63.6429 22.1947 62.3477 23.5104 60.75 23.5104C59.1522 23.5104 57.857 22.1947 57.857 20.5716V8.81641H23.1428V20.5716C23.1428 22.1947 21.8476 23.5104 20.2499 23.5104C18.6521 23.5104 17.357 22.1947 17.357 20.5716V8.81641H8.67857C3.88552 8.81641 0 12.7636 0 17.6327V73.4695C0 78.3386 3.88552 82.2858 8.67857 82.2858H72.3214C77.1145 82.2858 81 78.3386 81 73.4695V17.6327C81 12.7636 77.1145 8.81641 72.3214 8.81641ZM75.2142 73.4695C75.2142 75.0926 73.919 76.4083 72.3213 76.4083H8.67857C7.08083 76.4083 5.78565 75.0926 5.78565 73.4695V35.2654H75.2142V73.4695Z" fill="#21B265"/>
<path d="M23.1429 41.1426H17.3573C15.7595 41.1426 14.4644 42.4583 14.4644 44.0814C14.4644 45.7045 15.7595 47.0202 17.3573 47.0202H23.1429C24.7407 47.0202 26.0358 45.7045 26.0358 44.0814C26.0358 42.4583 24.7407 41.1426 23.1429 41.1426Z" fill="#21B265"/>
<path d="M43.3929 41.1426H37.6073C36.0095 41.1426 34.7144 42.4583 34.7144 44.0814C34.7144 45.7045 36.0095 47.0202 37.6073 47.0202H43.3929C44.9907 47.0202 46.2858 45.7045 46.2858 44.0814C46.2858 42.4583 44.9907 41.1426 43.3929 41.1426Z" fill="#21B265"/>
<path d="M63.6429 41.1426H57.8573C56.2595 41.1426 54.9644 42.4583 54.9644 44.0814C54.9644 45.7045 56.2595 47.0202 57.8573 47.0202H63.6429C65.2407 47.0202 66.5358 45.7045 66.5358 44.0814C66.5358 42.4583 65.2405 41.1426 63.6429 41.1426Z" fill="#21B265"/>
<path d="M23.1429 52.8979H17.3573C15.7595 52.8979 14.4644 54.2137 14.4644 55.8368C14.4644 57.4599 15.7595 58.7756 17.3573 58.7756H23.1429C24.7407 58.7756 26.0358 57.4599 26.0358 55.8368C26.0358 54.2137 24.7407 52.8979 23.1429 52.8979Z" fill="#21B265"/>
<path d="M43.3929 52.8979H37.6073C36.0095 52.8979 34.7144 54.2137 34.7144 55.8368C34.7144 57.4599 36.0095 58.7756 37.6073 58.7756H43.3929C44.9907 58.7756 46.2858 57.4599 46.2858 55.8368C46.2858 54.2137 44.9907 52.8979 43.3929 52.8979Z" fill="#21B265"/>
<path d="M63.6429 52.8979H57.8573C56.2595 52.8979 54.9644 54.2137 54.9644 55.8368C54.9644 57.4599 56.2595 58.7756 57.8573 58.7756H63.6429C65.2407 58.7756 66.5358 57.4599 66.5358 55.8368C66.5357 54.2137 65.2405 52.8979 63.6429 52.8979Z" fill="#21B265"/>
<path d="M23.1429 64.6528H17.3573C15.7595 64.6528 14.4644 65.9686 14.4644 67.5917C14.4644 69.2148 15.7595 70.5303 17.3573 70.5303H23.1429C24.7407 70.5303 26.0358 69.2146 26.0358 67.5915C26.0358 65.9684 24.7407 64.6528 23.1429 64.6528Z" fill="#21B265"/>
<path d="M43.3929 64.6528H37.6073C36.0095 64.6528 34.7144 65.9686 34.7144 67.5917C34.7144 69.2148 36.0095 70.5305 37.6073 70.5305H43.3929C44.9907 70.5305 46.2858 69.2148 46.2858 67.5917C46.2858 65.9686 44.9907 64.6528 43.3929 64.6528Z" fill="#21B265"/>
<path d="M63.6429 64.6528H57.8573C56.2595 64.6528 54.9644 65.9686 54.9644 67.5917C54.9644 69.2148 56.2595 70.5305 57.8573 70.5305H63.6429C65.2407 70.5305 66.5358 69.2148 66.5358 67.5917C66.5358 65.9686 65.2405 64.6528 63.6429 64.6528Z" fill="#21B265"/>
</g>
<defs>
<clipPath id="clip0">
<rect width="81" height="82.2857" fill="white"/>
</clipPath>
</defs>
</svg>
