<svg width="37" height="37" viewBox="0 0 37 37" fill="none" xmlns="http://www.w3.org/2000/svg">
<path d="M24.0897 18.2651L15.2011 11.8335C15.1579 11.8021 15.1068 11.7833 15.0536 11.7792C15.0004 11.7751 14.9471 11.7857 14.8996 11.8101C14.852 11.8344 14.8122 11.8714 14.7844 11.917C14.7566 11.9626 14.742 12.0149 14.7422 12.0683V13.763C14.7422 14.1315 14.9192 14.482 15.2191 14.6988L20.4729 18.5L15.2191 22.3011C14.9192 22.5179 14.7422 22.8648 14.7422 23.237V24.9316C14.7422 25.1665 15.0096 25.3038 15.2011 25.1665L24.0897 18.7348C24.2487 18.6192 24.2487 18.3807 24.0897 18.2651Z" fill="#21B265"/>
<path d="M18.5 2.3125C9.56074 2.3125 2.3125 9.56074 2.3125 18.5C2.3125 27.4393 9.56074 34.6875 18.5 34.6875C27.4393 34.6875 34.6875 27.4393 34.6875 18.5C34.6875 9.56074 27.4393 2.3125 18.5 2.3125ZM18.5 31.9414C11.0783 31.9414 5.05859 25.9217 5.05859 18.5C5.05859 11.0783 11.0783 5.05859 18.5 5.05859C25.9217 5.05859 31.9414 11.0783 31.9414 18.5C31.9414 25.9217 25.9217 31.9414 18.5 31.9414Z" fill="#21B265"/>
</svg>
