<svg width="113" height="18" viewBox="0 0 113 18" fill="none" xmlns="http://www.w3.org/2000/svg">
<path d="M9 0L11.0206 6.21885H17.5595L12.2694 10.0623L14.2901 16.2812L9 12.4377L3.70993 16.2812L5.73056 10.0623L0.440492 6.21885H6.97937L9 0Z" fill="#21B265"/>
<path d="M33 0L35.0206 6.21885H41.5595L36.2694 10.0623L38.2901 16.2812L33 12.4377L27.7099 16.2812L29.7306 10.0623L24.4405 6.21885H30.9794L33 0Z" fill="#21B265"/>
<path d="M56.5 0L58.6329 6.21885H65.535L59.9511 10.0623L62.084 16.2812L56.5 12.4377L50.916 16.2812L53.0489 10.0623L47.465 6.21885H54.3671L56.5 0Z" fill="#21B265"/>
<path d="M80 0L82.0206 6.21885H88.5595L83.2694 10.0623L85.2901 16.2812L80 12.4377L74.7099 16.2812L76.7306 10.0623L71.4405 6.21885H77.9794L80 0Z" fill="#21B265"/>
<path d="M104 0L106.021 6.21885H112.56L107.269 10.0623L109.29 16.2812L104 12.4377L98.7099 16.2812L100.731 10.0623L95.4405 6.21885H101.979L104 0Z" fill="#21B265"/>
</svg>
